<svg width="64" height="64" viewBox="0 0 92 92" fill="none" xmlns="http://www.w3.org/2000/svg">
<g filter="url(#filter0_f_401_1137)">
<path fill-rule="evenodd" clip-rule="evenodd" d="M46.3124 16.4115C29.8532 16.4115 16.5155 29.6616 16.5155 46C16.5155 62.3384 29.8532 75.5884 46.3124 75.5884C62.7717 75.5884 76.1094 62.3384 76.1094 46C76.1094 29.6616 62.7717 16.4115 46.3124 16.4115ZM10.4844 46C10.4844 26.3447 26.528 10.416 46.3124 10.416C66.0969 10.416 82.1405 26.3447 82.1405 46C82.1405 65.6553 66.0969 81.584 46.3124 81.584C26.528 81.584 10.4844 65.6553 10.4844 46Z" fill="#814BF6"/>
</g>
<path fill-rule="evenodd" clip-rule="evenodd" d="M46.3124 16.4115C29.8532 16.4115 16.5155 29.6616 16.5155 46C16.5155 62.3384 29.8532 75.5884 46.3124 75.5884C62.7717 75.5884 76.1094 62.3384 76.1094 46C76.1094 29.6616 62.7717 16.4115 46.3124 16.4115ZM10.4844 46C10.4844 26.3447 26.528 10.416 46.3124 10.416C66.0969 10.416 82.1405 26.3447 82.1405 46C82.1405 65.6553 66.0969 81.584 46.3124 81.584C26.528 81.584 10.4844 65.6553 10.4844 46Z" fill="#814BF6"/>
<g filter="url(#filter1_f_401_1137)">
<path fill-rule="evenodd" clip-rule="evenodd" d="M46.3124 28.8705C36.7821 28.8705 29.0614 36.5423 29.0614 45.9996C29.0614 55.4568 36.7821 63.1286 46.3124 63.1286C55.8427 63.1286 63.5634 55.4568 63.5634 45.9996C63.5634 36.5423 55.8427 28.8705 46.3124 28.8705ZM23.0303 45.9996C23.0303 33.2254 33.4569 22.875 46.3124 22.875C59.1679 22.875 69.5945 33.2254 69.5945 45.9996C69.5945 58.7737 59.1679 69.1241 46.3124 69.1241C33.4569 69.1241 23.0303 58.7737 23.0303 45.9996Z" fill="#00BCFF"/>
</g>
<path fill-rule="evenodd" clip-rule="evenodd" d="M46.2665 28.8256C36.7362 28.8256 29.0155 36.4973 29.0155 45.9546C29.0155 55.4119 36.7362 63.0837 46.2665 63.0837C55.7968 63.0837 63.5175 55.4119 63.5175 45.9546C63.5175 36.4973 55.7968 28.8256 46.2665 28.8256ZM22.9844 45.9546C22.9844 33.1805 33.411 22.8301 46.2665 22.8301C59.122 22.8301 69.5486 33.1805 69.5486 45.9546C69.5486 58.7288 59.122 69.0792 46.2665 69.0792C33.411 69.0792 22.9844 58.7288 22.9844 45.9546Z" fill="#00BCFF"/>

<defs>
<filter id="filter0_f_401_1137" x="0.484375" y="0.416016" width="91.6562" height="91.168" filterUnits="userSpaceOnUse" color-interpolation-filters="sRGB">
<feFlood flood-opacity="0" result="BackgroundImageFix"/>
<feBlend mode="normal" in="SourceGraphic" in2="BackgroundImageFix" result="shape"/>
<feGaussianBlur stdDeviation="5" result="effect1_foregroundBlur_401_1137"/>
</filter>
<filter id="filter1_f_401_1137" x="13.0303" y="12.875" width="66.5645" height="66.25" filterUnits="userSpaceOnUse" color-interpolation-filters="sRGB">
<feFlood flood-opacity="0" result="BackgroundImageFix"/>
<feBlend mode="normal" in="SourceGraphic" in2="BackgroundImageFix" result="shape"/>
<feGaussianBlur stdDeviation="5" result="effect1_foregroundBlur_401_1137"/>
</filter>
</defs>
</svg>
